<svg xmlns="http://www.w3.org/2000/svg" width="1200" height="660" viewBox="0 0 1200 660">
<style>
text { font-family: Arial, sans-serif; }
</style>
<rect width="1200" height="660" fill="white"/>
<text x="24" y="30" font-size="22" font-weight="700" fill="#111827">Parameter Recovery</text>
<text x="24" y="56" font-size="14" fill="#4b5563">Cl2/Ar ICP actinometry benchmark (literature-anchored, measurement-like)</text>
<rect x="90.0" y="100.0" width="480.0" height="220.0" fill="white" stroke="#374151" stroke-width="1"/>
<line x1="90.0" y1="320.0" x2="570.0" y2="320.0" stroke="#e5e7eb" stroke-width="1"/>
<text x="82.0" y="324.0" text-anchor="end" font-size="11" fill="#374151">16.0</text>
<line x1="90.0" y1="265.0" x2="570.0" y2="265.0" stroke="#e5e7eb" stroke-width="1"/>
<text x="82.0" y="269.0" text-anchor="end" font-size="11" fill="#374151">16.1</text>
<line x1="90.0" y1="210.0" x2="570.0" y2="210.0" stroke="#e5e7eb" stroke-width="1"/>
<text x="82.0" y="214.0" text-anchor="end" font-size="11" fill="#374151">16.2</text>
<line x1="90.0" y1="155.0" x2="570.0" y2="155.0" stroke="#e5e7eb" stroke-width="1"/>
<text x="82.0" y="159.0" text-anchor="end" font-size="11" fill="#374151">16.3</text>
<line x1="90.0" y1="100.0" x2="570.0" y2="100.0" stroke="#e5e7eb" stroke-width="1"/>
<text x="82.0" y="104.0" text-anchor="end" font-size="11" fill="#374151">16.4</text>
<text x="330.0" y="354.0" text-anchor="middle" font-size="12" fill="#374151">Shell index</text>
<text x="44.0" y="92.0" text-anchor="start" font-size="12" fill="#374151">log10(value)</text>
<text x="90.0" y="86.0" font-size="13" font-weight="700" fill="#111827">ne</text>
<text x="250.0" y="86.0" font-size="11" fill="#4b5563">opt rel err 0.159, uncertainty 0.950</text>
<line x1="90.0" y1="100.0" x2="90.0" y2="320.0" stroke="#e5e7eb" stroke-width="1"/>
<text x="90.0" y="336.0" text-anchor="middle" font-size="11" fill="#374151">0</text>
<line x1="330.0" y1="100.0" x2="330.0" y2="320.0" stroke="#e5e7eb" stroke-width="1"/>
<text x="330.0" y="336.0" text-anchor="middle" font-size="11" fill="#374151">1</text>
<line x1="570.0" y1="100.0" x2="570.0" y2="320.0" stroke="#e5e7eb" stroke-width="1"/>
<text x="570.0" y="336.0" text-anchor="middle" font-size="11" fill="#374151">2</text>
<polyline fill="none" stroke="#9ca3af" stroke-width="2.5" stroke-dasharray="6,4" points="90.00,173.85 330.00,222.07 570.00,304.83"/>
<circle cx="90.0" cy="173.8" r="3.5" fill="#9ca3af"/>
<circle cx="330.0" cy="222.1" r="3.5" fill="#9ca3af"/>
<circle cx="570.0" cy="304.8" r="3.5" fill="#9ca3af"/>
<polyline fill="none" stroke="#2563eb" stroke-width="2.5" points="90.00,169.45 330.00,225.76 570.00,298.29"/>
<circle cx="90.0" cy="169.5" r="3.5" fill="#2563eb"/>
<circle cx="330.0" cy="225.8" r="3.5" fill="#2563eb"/>
<circle cx="570.0" cy="298.3" r="3.5" fill="#2563eb"/>
<polyline fill="none" stroke="#d97706" stroke-width="2.5" stroke-dasharray="2,3" points="90.00,115.17 330.00,173.85 570.00,270.59"/>
<circle cx="90.0" cy="115.2" r="3.5" fill="#d97706"/>
<circle cx="330.0" cy="173.8" r="3.5" fill="#d97706"/>
<circle cx="570.0" cy="270.6" r="3.5" fill="#d97706"/>
<rect x="650.0" y="100.0" width="480.0" height="220.0" fill="white" stroke="#374151" stroke-width="1"/>
<line x1="650.0" y1="320.0" x2="1130.0" y2="320.0" stroke="#e5e7eb" stroke-width="1"/>
<text x="642.0" y="324.0" text-anchor="end" font-size="11" fill="#374151">2.63</text>
<line x1="650.0" y1="265.0" x2="1130.0" y2="265.0" stroke="#e5e7eb" stroke-width="1"/>
<text x="642.0" y="269.0" text-anchor="end" font-size="11" fill="#374151">3.02</text>
<line x1="650.0" y1="210.0" x2="1130.0" y2="210.0" stroke="#e5e7eb" stroke-width="1"/>
<text x="642.0" y="214.0" text-anchor="end" font-size="11" fill="#374151">3.42</text>
<line x1="650.0" y1="155.0" x2="1130.0" y2="155.0" stroke="#e5e7eb" stroke-width="1"/>
<text x="642.0" y="159.0" text-anchor="end" font-size="11" fill="#374151">3.81</text>
<line x1="650.0" y1="100.0" x2="1130.0" y2="100.0" stroke="#e5e7eb" stroke-width="1"/>
<text x="642.0" y="104.0" text-anchor="end" font-size="11" fill="#374151">4.21</text>
<text x="890.0" y="354.0" text-anchor="middle" font-size="12" fill="#374151">Shell index</text>
<text x="604.0" y="92.0" text-anchor="start" font-size="12" fill="#374151">value</text>
<text x="650.0" y="86.0" font-size="13" font-weight="700" fill="#111827">te</text>
<text x="810.0" y="86.0" font-size="11" fill="#4b5563">opt rel err 0.090, uncertainty 0.067</text>
<line x1="650.0" y1="100.0" x2="650.0" y2="320.0" stroke="#e5e7eb" stroke-width="1"/>
<text x="650.0" y="336.0" text-anchor="middle" font-size="11" fill="#374151">0</text>
<line x1="890.0" y1="100.0" x2="890.0" y2="320.0" stroke="#e5e7eb" stroke-width="1"/>
<text x="890.0" y="336.0" text-anchor="middle" font-size="11" fill="#374151">1</text>
<line x1="1130.0" y1="100.0" x2="1130.0" y2="320.0" stroke="#e5e7eb" stroke-width="1"/>
<text x="1130.0" y="336.0" text-anchor="middle" font-size="11" fill="#374151">2</text>
<polyline fill="none" stroke="#9ca3af" stroke-width="2.5" stroke-dasharray="6,4" points="650.00,163.85 890.00,240.35 1130.00,302.94"/>
<circle cx="650.0" cy="163.9" r="3.5" fill="#9ca3af"/>
<circle cx="890.0" cy="240.3" r="3.5" fill="#9ca3af"/>
<circle cx="1130.0" cy="302.9" r="3.5" fill="#9ca3af"/>
<polyline fill="none" stroke="#2563eb" stroke-width="2.5" points="650.00,167.25 890.00,236.12 1130.00,304.83"/>
<circle cx="650.0" cy="167.3" r="3.5" fill="#2563eb"/>
<circle cx="890.0" cy="236.1" r="3.5" fill="#2563eb"/>
<circle cx="1130.0" cy="304.8" r="3.5" fill="#2563eb"/>
<polyline fill="none" stroke="#d97706" stroke-width="2.5" stroke-dasharray="2,3" points="650.00,115.17 890.00,191.67 1130.00,268.17"/>
<circle cx="650.0" cy="115.2" r="3.5" fill="#d97706"/>
<circle cx="890.0" cy="191.7" r="3.5" fill="#d97706"/>
<circle cx="1130.0" cy="268.2" r="3.5" fill="#d97706"/>
<rect x="90.0" y="380.0" width="480.0" height="220.0" fill="white" stroke="#374151" stroke-width="1"/>
<line x1="90.0" y1="600.0" x2="570.0" y2="600.0" stroke="#e5e7eb" stroke-width="1"/>
<text x="82.0" y="604.0" text-anchor="end" font-size="11" fill="#374151">18.9</text>
<line x1="90.0" y1="545.0" x2="570.0" y2="545.0" stroke="#e5e7eb" stroke-width="1"/>
<text x="82.0" y="549.0" text-anchor="end" font-size="11" fill="#374151">19.0</text>
<line x1="90.0" y1="490.0" x2="570.0" y2="490.0" stroke="#e5e7eb" stroke-width="1"/>
<text x="82.0" y="494.0" text-anchor="end" font-size="11" fill="#374151">19.1</text>
<line x1="90.0" y1="435.0" x2="570.0" y2="435.0" stroke="#e5e7eb" stroke-width="1"/>
<text x="82.0" y="439.0" text-anchor="end" font-size="11" fill="#374151">19.2</text>
<line x1="90.0" y1="380.0" x2="570.0" y2="380.0" stroke="#e5e7eb" stroke-width="1"/>
<text x="82.0" y="384.0" text-anchor="end" font-size="11" fill="#374151">19.3</text>
<text x="330.0" y="634.0" text-anchor="middle" font-size="12" fill="#374151">Shell index</text>
<text x="44.0" y="372.0" text-anchor="start" font-size="12" fill="#374151">log10(value)</text>
<text x="90.0" y="366.0" font-size="13" font-weight="700" fill="#111827">Cl</text>
<text x="250.0" y="366.0" font-size="11" fill="#4b5563">opt rel err 0.190, uncertainty 0.220</text>
<line x1="90.0" y1="380.0" x2="90.0" y2="600.0" stroke="#e5e7eb" stroke-width="1"/>
<text x="90.0" y="616.0" text-anchor="middle" font-size="11" fill="#374151">0</text>
<line x1="330.0" y1="380.0" x2="330.0" y2="600.0" stroke="#e5e7eb" stroke-width="1"/>
<text x="330.0" y="616.0" text-anchor="middle" font-size="11" fill="#374151">1</text>
<line x1="570.0" y1="380.0" x2="570.0" y2="600.0" stroke="#e5e7eb" stroke-width="1"/>
<text x="570.0" y="616.0" text-anchor="middle" font-size="11" fill="#374151">2</text>
<polyline fill="none" stroke="#9ca3af" stroke-width="2.5" stroke-dasharray="6,4" points="90.00,452.17 330.00,506.86 570.00,584.83"/>
<circle cx="90.0" cy="452.2" r="3.5" fill="#9ca3af"/>
<circle cx="330.0" cy="506.9" r="3.5" fill="#9ca3af"/>
<circle cx="570.0" cy="584.8" r="3.5" fill="#9ca3af"/>
<polyline fill="none" stroke="#2563eb" stroke-width="2.5" points="90.00,452.16 330.00,506.87 570.00,584.83"/>
<circle cx="90.0" cy="452.2" r="3.5" fill="#2563eb"/>
<circle cx="330.0" cy="506.9" r="3.5" fill="#2563eb"/>
<circle cx="570.0" cy="584.8" r="3.5" fill="#2563eb"/>
<polyline fill="none" stroke="#d97706" stroke-width="2.5" stroke-dasharray="2,3" points="90.00,395.17 330.00,452.17 570.00,552.37"/>
<circle cx="90.0" cy="395.2" r="3.5" fill="#d97706"/>
<circle cx="330.0" cy="452.2" r="3.5" fill="#d97706"/>
<circle cx="570.0" cy="552.4" r="3.5" fill="#d97706"/>
<rect x="650.0" y="380.0" width="480.0" height="220.0" fill="white" stroke="#374151" stroke-width="1"/>
<line x1="650.0" y1="600.0" x2="1130.0" y2="600.0" stroke="#e5e7eb" stroke-width="1"/>
<text x="642.0" y="604.0" text-anchor="end" font-size="11" fill="#374151">18.6</text>
<line x1="650.0" y1="545.0" x2="1130.0" y2="545.0" stroke="#e5e7eb" stroke-width="1"/>
<text x="642.0" y="549.0" text-anchor="end" font-size="11" fill="#374151">18.7</text>
<line x1="650.0" y1="490.0" x2="1130.0" y2="490.0" stroke="#e5e7eb" stroke-width="1"/>
<text x="642.0" y="494.0" text-anchor="end" font-size="11" fill="#374151">18.8</text>
<line x1="650.0" y1="435.0" x2="1130.0" y2="435.0" stroke="#e5e7eb" stroke-width="1"/>
<text x="642.0" y="439.0" text-anchor="end" font-size="11" fill="#374151">18.9</text>
<line x1="650.0" y1="380.0" x2="1130.0" y2="380.0" stroke="#e5e7eb" stroke-width="1"/>
<text x="642.0" y="384.0" text-anchor="end" font-size="11" fill="#374151">19.0</text>
<text x="890.0" y="634.0" text-anchor="middle" font-size="12" fill="#374151">Shell index</text>
<text x="604.0" y="372.0" text-anchor="start" font-size="12" fill="#374151">log10(value)</text>
<text x="650.0" y="366.0" font-size="13" font-weight="700" fill="#111827">Cl2e</text>
<text x="810.0" y="366.0" font-size="11" fill="#4b5563">opt rel err 0.135, uncertainty 0.174</text>
<line x1="650.0" y1="380.0" x2="650.0" y2="600.0" stroke="#e5e7eb" stroke-width="1"/>
<text x="650.0" y="616.0" text-anchor="middle" font-size="11" fill="#374151">0</text>
<line x1="890.0" y1="380.0" x2="890.0" y2="600.0" stroke="#e5e7eb" stroke-width="1"/>
<text x="890.0" y="616.0" text-anchor="middle" font-size="11" fill="#374151">1</text>
<line x1="1130.0" y1="380.0" x2="1130.0" y2="600.0" stroke="#e5e7eb" stroke-width="1"/>
<text x="1130.0" y="616.0" text-anchor="middle" font-size="11" fill="#374151">2</text>
<polyline fill="none" stroke="#9ca3af" stroke-width="2.5" stroke-dasharray="6,4" points="650.00,440.54 890.00,504.51 1130.00,584.83"/>
<circle cx="650.0" cy="440.5" r="3.5" fill="#9ca3af"/>
<circle cx="890.0" cy="504.5" r="3.5" fill="#9ca3af"/>
<circle cx="1130.0" cy="584.8" r="3.5" fill="#9ca3af"/>
<polyline fill="none" stroke="#2563eb" stroke-width="2.5" points="650.00,440.56 890.00,504.52 1130.00,584.82"/>
<circle cx="650.0" cy="440.6" r="3.5" fill="#2563eb"/>
<circle cx="890.0" cy="504.5" r="3.5" fill="#2563eb"/>
<circle cx="1130.0" cy="584.8" r="3.5" fill="#2563eb"/>
<polyline fill="none" stroke="#d97706" stroke-width="2.5" stroke-dasharray="2,3" points="650.00,395.17 890.00,457.71 1130.00,567.66"/>
<circle cx="650.0" cy="395.2" r="3.5" fill="#d97706"/>
<circle cx="890.0" cy="457.7" r="3.5" fill="#d97706"/>
<circle cx="1130.0" cy="567.7" r="3.5" fill="#d97706"/>
<line x1="820.0" y1="56.0" x2="844.0" y2="56.0" stroke="#9ca3af" stroke-width="3" stroke-dasharray="6,4"/>
<text x="850.0" y="60.0" font-size="12" fill="#374151">init</text>
<line x1="820.0" y1="74.0" x2="844.0" y2="74.0" stroke="#2563eb" stroke-width="3"/>
<text x="850.0" y="78.0" font-size="12" fill="#374151">opt</text>
<line x1="820.0" y1="92.0" x2="844.0" y2="92.0" stroke="#d97706" stroke-width="3" stroke-dasharray="2,3"/>
<text x="850.0" y="96.0" font-size="12" fill="#374151">truth</text>
</svg>